<?xml version="1.0" encoding="utf-8"?>
<!-- Generator: Adobe Illustrator 26.1.0, SVG Export Plug-In . SVG Version: 6.00 Build 0)  -->
<svg version="1.1" id="Layer_1" xmlns="http://www.w3.org/2000/svg" xmlns:xlink="http://www.w3.org/1999/xlink" x="0px" y="0px"
	 viewBox="0 0 300 300" style="enable-background:new 0 0 300 300;" xml:space="preserve">
<style type="text/css">
	.st0{fill:none;stroke:#231F20;stroke-miterlimit:10;}
</style>
<g>
	<path class="st0" d="M149.4,202.2c-29.2,0-52.9-23.7-52.9-52.9s23.7-52.9,52.9-52.9s52.9,23.7,52.9,52.9
		C202.3,178.5,178.6,202.2,149.4,202.2z M149.4,103.1c-25.5,0-46.2,20.7-46.2,46.2s20.7,46.2,46.2,46.2s46.2-20.7,46.2-46.2
		C195.6,123.8,174.9,103.1,149.4,103.1z"/>
</g>
<g>
	<path class="st0" d="M149.4,186.9c-20.7,0-37.6-16.8-37.6-37.6c0-20.7,16.8-37.6,37.6-37.6c20.7,0,37.6,16.8,37.6,37.6
		C187,170,170.1,186.9,149.4,186.9z M149.4,113.5c-19.8,0-35.8,16.1-35.8,35.8c0,19.8,16.1,35.8,35.8,35.8
		c19.8,0,35.8-16.1,35.8-35.8C185.2,129.5,169.2,113.5,149.4,113.5z"/>
</g>
<g>
	<path class="st0" d="M149.4,174.7c-14,0-25.4-11.4-25.4-25.4s11.4-25.4,25.4-25.4s25.4,11.4,25.4,25.4
		C174.8,163.3,163.4,174.7,149.4,174.7z M149.4,128.2c-11.7,0-21.1,9.5-21.1,21.1c0,11.7,9.5,21.1,21.1,21.1
		c11.7,0,21.1-9.5,21.1-21.1C170.6,137.6,161.1,128.2,149.4,128.2z"/>
</g>
<path class="st0" d="M149.4,133.6c-8.6,0-15.7,7-15.7,15.7c0,4.3,1.8,8.2,4.6,11.1c2.2,2.5,5.3,4.2,8.6,4.4c0.8,0.1,1.7,0.2,2.5,0.2
	c8.6,0,15.7-7,15.7-15.7C165.1,140.7,158,133.6,149.4,133.6z"/>
<g>
	<g>
		<path class="st0" d="M114.3,116.5c-0.4,0-0.8-0.1-1.2-0.4c-0.2-0.1-21.3-15.1-9.6-35.6c10.9-19.1,42.8-49.6,44.1-50.9
			c0.8-0.8,2-0.8,2.9,0c1.8,1.6,43.5,39.5,47.7,55.7c5.4,20.5-12.6,30.7-12.7,30.8c-1,0.6-2.3,0.2-2.9-0.8c-0.6-1-0.2-2.3,0.8-2.9
			c0.6-0.3,15.2-8.8,10.7-26.1C193,82,187.8,73,169.5,54c-8.7-9-17.2-17-20.5-20c-6.4,6.2-32.7,32.2-42,48.5
			c-4.1,7.1-3.9,14.3,0.3,21.3c3.3,5.4,8,8.7,8,8.8c1,0.7,1.2,2,0.5,2.9C115.6,116.2,115,116.5,114.3,116.5z"/>
	</g>
	<g>
		<path class="st0" d="M173.4,106l-1.4-0.9c0.1-0.2,11.8-17.9,1.3-28.1c-2.9-2.8-6.1-4.2-9.5-4c-6.7,0.2-12.1,6.2-12.1,6.2l-0.6,0.7
			l-0.6-0.6c0,0-2.8-2.8-6.9-4.6c-5.4-2.3-10.4-1.9-15,1.2c-5.9,4-8,10.1-6.2,18.1c1.4,6.1,4.7,11,4.7,11.1l-1.4,0.9
			c-0.1-0.2-13.7-20.8,1.9-31.5c10.5-7.2,20.8,0.7,23.4,3c1.7-1.6,6.6-5.9,12.7-6.2c3.9-0.2,7.5,1.4,10.7,4.5
			c4.8,4.6,6.1,11.4,3.8,19.5C176.5,101.3,173.5,105.8,173.4,106z"/>
	</g>
	<path class="st0" d="M167.9,86.1c-2.4-2.3-5.1-3.4-8-3.3c-2.5,0.1-4.8,1.1-6.5,2.2c-0.9,0.6-1.8,1.2-2.6,2
		c-0.4-0.4-0.8-0.7-1.2-1.1c-2.8-2.5-8.8-6.1-16.1-0.8c-5.5,3.9-6.6,10.1-3.3,18.5l1.6-0.6c-0.1-0.2-0.2-0.5-0.2-0.7
		c2,1.2,4.6-1.7,2.8-3.8c-1.2-1.4-0.4-3.8,0.2-5.3c0.8-1.9,2.1-3.6,3.9-4.6c3.5-1.9,8.6-0.1,10.4,3.5c0.8,1.6,3.2,1.4,4.1,0
		c2.1-3.6,6.6-5.3,10.4-3.3c4.7,2.4,2.7,7.8,1,11.5c-1.2,2.5,2.2,4.7,3.7,3l0.9,0.4C170.3,100.6,174.1,92.1,167.9,86.1z"/>
	<path class="st0" d="M150.3,44.9l-0.7-0.8l-0.7,0.8c-0.3,0.4-7.1,9.1-7.1,16.1c0,7.9,4.2,9.6,7.7,9.6s7.7-1.7,7.7-9.6
		C157.4,54.1,150.6,45.3,150.3,44.9z"/>
	<g>
		<path class="st0" d="M115.5,89.3c-0.7,0-1.4-0.4-1.8-1.1l-6.2-11c-0.6-1-0.2-2.3,0.8-2.9s2.3-0.2,2.9,0.8l6.2,11
			c0.6,1,0.2,2.3-0.8,2.9C116.2,89.2,115.8,89.3,115.5,89.3z"/>
	</g>
	<g>
		<path class="st0" d="M132.5,65.2c-0.8,0-1.5-0.4-1.9-1.2l-4.7-9.7c-0.5-1-0.1-2.3,1-2.8c1-0.5,2.3-0.1,2.8,1l4.7,9.7
			c0.5,1,0.1,2.3-1,2.8C133.1,65.1,132.8,65.2,132.5,65.2z"/>
	</g>
	<g>
		<path class="st0" d="M184,89.3c-0.3,0-0.7-0.1-1-0.3c-1-0.6-1.4-1.9-0.8-2.9l6.2-11c0.6-1,1.9-1.4,2.9-0.8s1.4,1.9,0.8,2.9
			l-6.2,11C185.4,88.9,184.7,89.3,184,89.3z"/>
	</g>
	<g>
		<path class="st0" d="M166.9,65.2c-0.3,0-0.6-0.1-0.9-0.2c-1-0.5-1.5-1.8-1-2.8l4.7-9.7c0.5-1,1.8-1.5,2.8-1s1.5,1.8,1,2.8
			l-4.7,9.7C168.4,64.8,167.7,65.2,166.9,65.2z"/>
	</g>
</g>
<path class="st0" d="M150.1,265.1c6.4-6.2,32.7-32.2,42-48.5c4.1-7.1,3.9-14.3-0.3-21.3c-3.3-5.4-8-8.7-8-8.8c-1-0.7-1.2-2-0.5-2.9
	c0.7-1,2-1.2,2.9-0.5c0.2,0.1,21.3,15.1,9.6,35.6c-10.9,19.1-42.8,49.6-44.1,50.9"/>
<path class="st0" d="M148.7,269.6c-1.8-1.6-43.5-39.5-47.7-55.7c-5.4-20.5,12.5-30.7,12.7-30.8c1-0.6,2.3-0.2,2.9,0.8
	s0.2,2.3-0.8,2.9c-0.6,0.3-15.2,8.8-10.7,26.1c1.1,4.3,6.3,13.3,24.6,32.3c8.7,9,17.2,17,20.5,20"/>
<g>
	<path class="st0" d="M135,227.9c-3.7,0-7.1-1.5-10.2-4.5c-4.8-4.6-6.1-11.4-3.8-19.5c1.7-6,4.8-10.6,4.9-10.8l1.4,0.9
		c-0.1,0.2-11.8,17.9-1.3,28.1c2.9,2.8,6.1,4.2,9.5,4c6.7-0.3,12-6.2,12.1-6.2l0.6-0.7l0.6,0.6c0,0,2.8,2.8,6.9,4.6
		c5.4,2.3,10.4,1.9,15-1.2c5.9-4,8-10.1,6.2-18.1c-1.4-6.1-4.7-11-4.7-11.1l1.4-0.9c0.1,0.2,13.7,20.8-1.9,31.5
		c-10.5,7.2-20.8-0.7-23.4-3c-1.7,1.6-6.6,5.9-12.7,6.2C135.3,227.9,135.1,227.9,135,227.9z"/>
</g>
<path class="st0" d="M169,195.6l-0.3,0.1c-1.2-1.8-4.7-0.5-4.2,2.1c0.8,4.4,0.6,10.5-4.2,12.7c-4.2,2-8.7-0.4-10.9-4.2
	c-1-1.6-3.1-1.4-4.1,0c-2.3,3.2-6.4,7-10,3.2c-2.3-2.4-3.3-8-0.8-10.6c2.1-2.2-1.2-5.5-3.3-3.3c-0.1,0.1-0.2,0.2-0.3,0.3l-0.7-0.3
	c-1.4,3.2-5.3,11.6,1,17.6c2.4,2.3,5.1,3.4,8,3.3c4.1-0.2,7.5-2.8,9-4.2c0.7,0.6,1.4,1.2,2.2,1.7c1.8,1.4,4.4,2.8,7.6,2.8
	c2.3,0,4.8-0.7,7.6-2.7C171.2,210.2,172.3,203.9,169,195.6z"/>
<path class="st0" d="M149.5,228.6c-3.5,0-7.7,1.7-7.7,9.6c0,6.9,6.8,15.7,7.1,16.1l0.7,0.8l0.7-0.8c0.3-0.4,7.1-9.1,7.1-16.1
	C157.3,230.3,153,228.6,149.5,228.6z"/>
<g>
	<path class="st0" d="M189.9,225.1c-0.7,0-1.4-0.4-1.8-1.1l-6.2-11c-0.6-1-0.2-2.3,0.8-2.9c1-0.6,2.3-0.2,2.9,0.8l6.2,11
		c0.6,1,0.2,2.3-0.8,2.9C190.6,225,190.2,225.1,189.9,225.1z"/>
</g>
<g>
	<path class="st0" d="M171.3,247.9c-0.8,0-1.5-0.4-1.9-1.2l-4.7-9.7c-0.5-1-0.1-2.3,1-2.8c1-0.5,2.3-0.1,2.8,1l4.7,9.7
		c0.5,1,0.1,2.3-1,2.8C171.9,247.8,171.6,247.9,171.3,247.9z"/>
</g>
<g>
	<path class="st0" d="M109,225.1c-0.3,0-0.7-0.1-1-0.3c-1-0.6-1.4-1.9-0.8-2.9l6.2-11c0.6-1,1.9-1.4,2.9-0.8c1,0.6,1.4,1.9,0.8,2.9
		l-6.2,11C110.5,224.7,109.8,225.1,109,225.1z"/>
</g>
<g>
	<path class="st0" d="M127.6,247.9c-0.3,0-0.6-0.1-0.9-0.2c-1-0.5-1.5-1.8-1-2.8l4.7-9.7c0.5-1,1.8-1.5,2.8-1s1.5,1.8,1,2.8
		l-4.7,9.7C129.1,247.5,128.4,247.9,127.6,247.9z"/>
</g>
<g>
	<g>
		<g>
			<path class="st0" d="M206.6,199.2c-15.5,0-23.3-13.6-23.3-13.7c-0.6-1-0.2-2.3,0.8-2.9c1-0.6,2.3-0.2,2.9,0.8
				c0.3,0.6,8.8,15.2,26.1,10.7c4.3-1.1,13.3-6.3,32.3-24.6c9-8.7,16.9-17.1,20-20.4c-6.2-6.4-32.2-32.7-48.5-42
				c-7.1-4.1-14.3-3.9-21.3,0.3c-5.4,3.3-8.7,8-8.8,8c-0.7,1-2,1.2-2.9,0.5c-1-0.7-1.2-2-0.5-2.9c0.1-0.2,15.1-21.3,35.6-9.6
				c19.1,10.9,49.6,42.8,50.9,44.1c0.8,0.8,0.8,2,0,2.9c-1.6,1.8-39.5,43.5-55.7,47.7C211.4,198.9,208.9,199.2,206.6,199.2z"/>
		</g>
		<g>
			<path class="st0" d="M211.5,179.4c-2.3,0-4.7-0.4-7.3-1.1c-6-1.7-10.6-4.8-10.8-4.9l0.9-1.4c0.2,0.1,17.9,11.8,28.1,1.3
				c2.8-2.9,4.2-6.1,4-9.5c-0.2-6.7-6.2-12.1-6.2-12.1l-0.7-0.6l0.6-0.6c0,0,2.8-2.8,4.6-6.9c2.3-5.4,1.9-10.4-1.2-15
				c-4-5.9-10.1-8-18.1-6.2c-6.1,1.4-11,4.7-11.1,4.7l-0.9-1.4c0.2-0.1,20.8-13.7,31.5,1.9c7.2,10.5-0.7,20.8-3,23.4
				c1.6,1.7,5.9,6.6,6.2,12.7c0.1,3.9-1.4,7.5-4.5,10.7C220.5,177.7,216.3,179.4,211.5,179.4z"/>
		</g>
		<path class="st0" d="M212.3,150.7c2.2-2,8.1-8.7,2-17.3c-3.9-5.5-10.1-6.6-18.5-3.3l0.6,1.6c0,0,0,0,0.1,0c-0.7,1.7,0.5,4,2.7,3.2
			s4.4-1.3,6.7-1s3.6,1.4,4.3,3.6c1.3,4.1,0.5,8.8-3.2,11.4c-1.3,0.9-1.7,3.2,0,4.1c3.5,1.8,4.8,6.5,3.5,10.1
			c-2,5.4-8.2,2.8-11.6,0.5c-2.5-1.6-4.8,2.3-2.5,4l-0.6,1.3c1.8,0.8,5.5,2.5,9.4,2.5c2.8,0,5.7-0.8,8.2-3.5c2.3-2.4,3.4-5.1,3.3-8
			C216.4,155.6,213.6,152.1,212.3,150.7z"/>
		<path class="st0" d="M254.5,149c-0.4-0.3-9.1-7.1-16.1-7.1c-6.1,0-8.5,2.5-9.3,5.2c-0.4,0.9-0.6,1.8-0.6,2.8c0,0.5,0.2,1,0.4,1.5
			c0.5,3,2.8,6,9.5,6c6.9,0,15.7-6.8,16.1-7.1l0.8-0.7L254.5,149z"/>
		<g>
			<path class="st0" d="M212.2,117.6c-0.7,0-1.4-0.4-1.8-1.1c-0.6-1-0.2-2.3,0.8-2.9l11-6.2c1-0.6,2.3-0.2,2.9,0.8
				c0.6,1,0.2,2.3-0.8,2.9l-11,6.2C212.9,117.5,212.6,117.6,212.2,117.6z"/>
		</g>
		<g>
			<path class="st0" d="M236.3,134.7c-0.8,0-1.5-0.4-1.9-1.2c-0.5-1-0.1-2.3,1-2.8l9.7-4.7c1-0.5,2.3-0.1,2.8,1c0.5,1,0.1,2.3-1,2.8
				l-9.7,4.7C236.9,134.6,236.6,134.7,236.3,134.7z"/>
		</g>
		<g>
			<path class="st0" d="M223.2,192.3c-0.3,0-0.7-0.1-1-0.3l-11-6.2c-1-0.6-1.4-1.9-0.8-2.9c0.6-1,1.9-1.4,2.9-0.8l11,6.2
				c1,0.6,1.4,1.9,0.8,2.9C224.6,191.9,223.9,192.3,223.2,192.3z"/>
		</g>
		<g>
			<path class="st0" d="M246,173.7c-0.3,0-0.6-0.1-0.9-0.2l-9.7-4.7c-1-0.5-1.5-1.8-1-2.8s1.8-1.5,2.8-1l9.7,4.7
				c1,0.5,1.5,1.8,1,2.8C247.5,173.3,246.8,173.7,246,173.7z"/>
		</g>
	</g>
	<g>
		<g>
			<path class="st0" d="M93.1,199.2c-3.8,0-8-1-12.4-3.5c-19.1-10.9-49.6-42.8-50.9-44.1c-0.8-0.8-0.8-2,0-2.9
				c1.6-1.8,39.5-43.5,55.7-47.7c20.5-5.4,30.7,12.5,30.8,12.7c0.6,1,0.2,2.3-0.8,2.9s-2.3,0.2-2.9-0.8c-0.3-0.6-8.8-15.2-26.1-10.7
				c-4.3,1.1-13.3,6.3-32.3,24.6c-9,8.7-17,17.2-20,20.5c6.2,6.4,32.2,32.7,48.5,42c7.1,4.1,14.3,3.9,21.3-0.3c5.4-3.3,8.7-8,8.8-8
				c0.7-1,2-1.2,2.9-0.5c1,0.7,1.2,2,0.5,2.9C116.2,186.3,107,199.2,93.1,199.2z"/>
		</g>
		<g>
			<path class="st0" d="M88.8,179.1c-5.1,0-10.3-1.8-14.2-7.5c-7.2-10.5,0.7-20.8,3-23.4c-1.6-1.7-5.9-6.6-6.2-12.7
				c-0.1-3.9,1.4-7.5,4.5-10.7c4.6-4.8,11.4-6.1,19.5-3.8c6,1.7,10.6,4.8,10.8,4.9l-0.9,1.4c-0.2-0.1-17.9-11.8-28.1-1.3
				c-2.8,2.9-4.2,6.1-4,9.5c0.2,6.7,6.2,12.1,6.2,12.1l0.7,0.6l-0.6,0.6c0,0-2.8,2.8-4.6,6.9c-2.3,5.4-1.9,10.4,1.2,15
				c9.7,14.2,29,1.6,29.2,1.5l0.9,1.4C106,173.6,97.6,179.1,88.8,179.1z"/>
		</g>
		<path class="st0" d="M103.1,167.5c0.7-1.8-1.3-4.2-3.4-2.9c-3.8,2.3-8.5,0.8-10.3-3.3c-1.8-4,0.1-8.4,3.6-10.8
			c1.3-0.8,1.6-2.6,0.5-3.7c-2.4-2.4-7-7-4-10.6c2.1-2.5,7.5-3.4,10.2-1.7c2,1.3,3.9-1,3.4-2.8c0.1,0,0.1,0.1,0.2,0.1l0.7-1.5
			c-3.2-1.4-11.6-5.3-17.6,1c-2.3,2.4-3.4,5.1-3.3,8c0.2,4.3,3,7.8,4.3,9.2c-2.2,2-8.1,8.7-2,17.3c2.5,3.4,5.8,5.1,10,5.1
			c2.5,0,5.3-0.6,8.5-1.8L103.1,167.5C103.2,167.5,103.2,167.5,103.1,167.5z"/>
		<path class="st0" d="M61.2,141.8c-6.9,0-15.7,6.8-16.1,7.1l-0.8,0.7l0.8,0.7c0.4,0.3,9.1,7.1,16.1,7.1c7.9,0,9.6-4.2,9.6-7.7
			C70.8,146,69.1,141.8,61.2,141.8z"/>
		<g>
			<path class="st0" d="M76.4,192c-0.7,0-1.4-0.4-1.8-1.1c-0.6-1-0.2-2.3,0.8-2.9l11-6.2c1-0.6,2.3-0.2,2.9,0.8s0.2,2.3-0.8,2.9
				l-11,6.2C77.1,191.9,76.8,192,76.4,192z"/>
		</g>
		<g>
			<path class="st0" d="M53.6,173.4c-0.8,0-1.5-0.4-1.9-1.2c-0.5-1-0.1-2.3,1-2.8l9.7-4.7c1-0.5,2.3-0.1,2.8,1c0.5,1,0.1,2.3-1,2.8
				l-9.7,4.7C54.2,173.4,53.9,173.4,53.6,173.4z"/>
		</g>
		<g>
			<path class="st0" d="M87.4,117.3c-0.3,0-0.7-0.1-1-0.3l-11-6.2c-1-0.6-1.4-1.9-0.8-2.9s1.9-1.4,2.9-0.8l11,6.2
				c1,0.6,1.4,1.9,0.8,2.9C88.8,117,88.1,117.3,87.4,117.3z"/>
		</g>
		<g>
			<path class="st0" d="M63.3,134.4c-0.3,0-0.6-0.1-0.9-0.2l-9.7-4.7c-1-0.5-1.5-1.8-1-2.8s1.8-1.5,2.8-1l9.7,4.7
				c1,0.5,1.5,1.8,1,2.8C64.8,133.9,64.1,134.4,63.3,134.4z"/>
		</g>
	</g>
</g>
<g>
	<g>
		<g>
			<path class="st0" d="M149.8,126c-0.5,0-0.8-0.4-0.8-0.8v-11.5c0-0.5,0.4-0.8,0.8-0.8s0.8,0.4,0.8,0.8v11.5
				C150.6,125.7,150.3,126,149.8,126z"/>
		</g>
		<g>
			<path class="st0" d="M149.8,185.7c-0.5,0-0.8-0.4-0.8-0.8v-11.5c0-0.5,0.4-0.8,0.8-0.8s0.8,0.4,0.8,0.8v11.5
				C150.6,185.3,150.3,185.7,149.8,185.7z"/>
		</g>
	</g>
	<g>
		<g>
			<path class="st0" d="M185,150.1h-11.5c-0.5,0-0.8-0.4-0.8-0.8c0-0.5,0.4-0.8,0.8-0.8H185c0.5,0,0.8,0.4,0.8,0.8
				C185.8,149.8,185.4,150.1,185,150.1z"/>
		</g>
		<g>
			<path class="st0" d="M125.3,150.1h-11.5c-0.5,0-0.8-0.4-0.8-0.8c0-0.5,0.4-0.8,0.8-0.8h11.5c0.5,0,0.8,0.4,0.8,0.8
				C126.2,149.8,125.8,150.1,125.3,150.1z"/>
		</g>
	</g>
</g>
<g>
	<g>
		<g>
			<path class="st0" d="M166.6,133.4c-0.2,0-0.4-0.1-0.6-0.2c-0.3-0.3-0.3-0.9,0-1.2l8.1-8.1c0.3-0.3,0.9-0.3,1.2,0s0.3,0.9,0,1.2
				l-8.1,8.1C167,133.3,166.8,133.4,166.6,133.4z"/>
		</g>
		<g>
			<path class="st0" d="M124.4,175.5c-0.2,0-0.4-0.1-0.6-0.2c-0.3-0.3-0.3-0.9,0-1.2l8.1-8.1c0.3-0.3,0.9-0.3,1.2,0s0.3,0.9,0,1.2
				l-8.1,8.1C124.8,175.5,124.6,175.5,124.4,175.5z"/>
		</g>
	</g>
	<g>
		<g>
			<path class="st0" d="M174.4,175.3c-0.2,0-0.4-0.1-0.6-0.2l-8.1-8.1c-0.3-0.3-0.3-0.9,0-1.2s0.9-0.3,1.2,0l8.1,8.1
				c0.3,0.3,0.3,0.9,0,1.2C174.8,175.2,174.6,175.3,174.4,175.3z"/>
		</g>
		<g>
			<path class="st0" d="M132.2,133.1c-0.2,0-0.4-0.1-0.6-0.2l-8.1-8.1c-0.3-0.3-0.3-0.9,0-1.2c0.3-0.3,0.9-0.3,1.2,0l8.1,8.1
				c0.3,0.3,0.3,0.9,0,1.2C132.7,133,132.4,133.1,132.2,133.1z"/>
		</g>
	</g>
</g>
<g>
	<path class="st0" d="M86,104.3c-0.7,0-1.3-0.6-1.3-1.3V86.5c0-0.7,0.6-1.3,1.3-1.3h16.8c0.7,0,1.3,0.6,1.3,1.3
		c0,0.7-0.6,1.3-1.3,1.3H87.3V103C87.3,103.7,86.7,104.3,86,104.3z"/>
</g>
<g>
	<path class="st0" d="M102.7,215.2H86.2c-0.7,0-1.3-0.6-1.3-1.3v-16.8c0-0.7,0.6-1.3,1.3-1.3c0.7,0,1.3,0.6,1.3,1.3v15.5h15.3
		c0.7,0,1.3,0.6,1.3,1.3C104,214.6,103.4,215.2,102.7,215.2z"/>
</g>
<g>
	<path class="st0" d="M213.5,104.4c-0.7,0-1.3-0.6-1.3-1.3V87.6h-15.3c-0.7,0-1.3-0.6-1.3-1.3c0-0.7,0.6-1.3,1.3-1.3h16.6
		c0.7,0,1.3,0.6,1.3,1.3v16.8C214.8,103.8,214.2,104.4,213.5,104.4z"/>
</g>
<g>
	<path class="st0" d="M213.6,215.4h-16.8c-0.7,0-1.3-0.6-1.3-1.3s0.6-1.3,1.3-1.3h15.5v-15.3c0-0.7,0.6-1.3,1.3-1.3s1.3,0.6,1.3,1.3
		v16.6C214.9,214.9,214.3,215.4,213.6,215.4z"/>
</g>
</svg>
